<svg width="40" height="27" viewBox="0 0 40 27" fill="none" xmlns="http://www.w3.org/2000/svg">
<path d="M2.22223 26.6667C1.5926 26.6667 1.06519 26.4533 0.640008 26.0267C0.214823 25.6 0.00148914 25.0726 7.66282e-06 24.4444C-0.00147382 23.8163 0.21186 23.2889 0.640008 22.8622C1.06816 22.4355 1.59556 22.2222 2.22223 22.2222H37.7778C38.4074 22.2222 38.9355 22.4355 39.3622 22.8622C39.7889 23.2889 40.0015 23.8163 40 24.4444C39.9985 25.0726 39.7852 25.6007 39.36 26.0289C38.9348 26.457 38.4074 26.6696 37.7778 26.6667H2.22223ZM2.22223 15.5555C1.5926 15.5555 1.06519 15.3422 0.640008 14.9155C0.214823 14.4889 0.00148914 13.9615 7.66282e-06 13.3333C-0.00147382 12.7052 0.21186 12.1778 0.640008 11.7511C1.06816 11.3244 1.59556 11.1111 2.22223 11.1111H37.7778C38.4074 11.1111 38.9355 11.3244 39.3622 11.7511C39.7889 12.1778 40.0015 12.7052 40 13.3333C39.9985 13.9615 39.7852 14.4896 39.36 14.9178C38.9348 15.3459 38.4074 15.5585 37.7778 15.5555H2.22223ZM2.22223 4.44444C1.5926 4.44444 1.06519 4.23111 0.640008 3.80444C0.214823 3.37778 0.00148914 2.85037 7.66282e-06 2.22222C-0.00147382 1.59407 0.21186 1.06667 0.640008 0.64C1.06816 0.213333 1.59556 0 2.22223 0H37.7778C38.4074 0 38.9355 0.213333 39.3622 0.64C39.7889 1.06667 40.0015 1.59407 40 2.22222C39.9985 2.85037 39.7852 3.37852 39.36 3.80666C38.9348 4.23481 38.4074 4.4474 37.7778 4.44444H2.22223Z" fill="white"/>
</svg>
