<svg width="38" height="38" viewBox="0 0 38 38" fill="none" xmlns="http://www.w3.org/2000/svg">
<path d="M37.2894 36.7501C37.1629 36.9781 36.9808 37.1675 36.7616 37.2992C36.5424 37.4308 36.2937 37.5001 36.0406 37.5H1.4402C1.18726 37.4997 0.938839 37.4302 0.719881 37.2985C0.500924 37.1667 0.319138 36.9774 0.192779 36.7494C0.0664202 36.5215 -6.48906e-05 36.263 4.75247e-08 35.9998C6.49856e-05 35.7367 0.0666776 35.4782 0.193149 35.2503C2.93775 30.3141 7.16729 26.7746 12.1032 25.0967C9.6617 23.5846 7.76477 21.2806 6.70376 18.5384C5.64276 15.7963 5.47635 12.7676 6.23009 9.91755C6.98383 7.06747 8.61604 4.55359 10.8761 2.76196C13.1361 0.970324 15.899 0 18.7404 0C21.5818 0 24.3447 0.970324 26.6047 2.76196C28.8648 4.55359 30.497 7.06747 31.2507 9.91755C32.0044 12.7676 31.838 15.7963 30.777 18.5384C29.716 21.2806 27.8191 23.5846 25.3775 25.0967C30.3135 26.7746 34.543 30.3141 37.2876 35.2503C37.4145 35.4781 37.4814 35.7367 37.4817 36C37.482 36.2632 37.4157 36.5219 37.2894 36.7501Z" fill="white"/>
</svg>
