<svg width="50" height="50" viewBox="0 0 50 50" fill="none" xmlns="http://www.w3.org/2000/svg">
<path d="M17.418 1.64469C12.4222 3.37777 8.1139 6.66722 5.1258 11.0299C2.1377 15.3925 0.627365 20.5984 0.816626 25.8828C1.00589 31.1673 2.88477 36.2518 6.17731 40.3895C9.46984 44.5272 14.0025 47.5 19.1094 48.8713C23.2498 49.9396 27.5876 49.9865 31.7501 49.008C35.5208 48.161 39.007 46.3492 41.8672 43.7502C44.8441 40.9625 47.0049 37.4161 48.1172 33.4923C49.3263 29.2254 49.5415 24.7382 48.7462 20.3752H25.4961V30.0197H38.961C38.6919 31.5579 38.1152 33.0261 37.2655 34.3362C36.4158 35.6464 35.3104 36.7717 34.0157 37.6447C32.3715 38.7323 30.518 39.4641 28.5743 39.7931C26.6248 40.1556 24.6253 40.1556 22.6758 39.7931C20.7 39.3846 18.8309 38.5691 17.1876 37.3986C14.5475 35.5298 12.5652 32.8749 11.5235 29.8127C10.4642 26.6931 10.4642 23.3111 11.5235 20.1916C12.265 18.0049 13.4908 16.014 15.1094 14.3673C16.9617 12.4484 19.3068 11.0767 21.8874 10.4028C24.4679 9.72889 27.1843 9.7788 29.7383 10.547C31.7335 11.1595 33.5581 12.2296 35.0665 13.672C36.5847 12.1616 38.1003 10.6473 39.6133 9.12907C40.3946 8.31266 41.2461 7.53532 42.0157 6.69938C39.7132 4.55671 37.0105 2.88945 34.0626 1.79313C28.6942 -0.156129 22.8203 -0.208514 17.418 1.64469Z" fill="white"/>
</svg>
